<svg width="100" height="62" viewBox="0 0 100 62" fill="none" xmlns="http://www.w3.org/2000/svg"><path d="M0 0H86.0267C93.7439 0 100 6.25608 100 13.9733V13.9733C100 21.6906 93.7439 27.9467 86.0267 27.9467H0V0Z" fill="url(#paint0_linear)"/><path d="M90 11.6678L84.2557 11.1795L82 5.98853L79.7443 11.1795L74 11.6678L78.3803 15.3683L77.0689 20.8934L82 17.9638L86.9574 20.8934L85.6459 15.3683L90 11.6678ZM82 16.499L78.9836 18.2722L79.7967 14.9058L77.1213 12.67L80.6361 12.3617L82 9.20079L83.3639 12.3617L86.8787 12.67L84.2295 14.9315L85.0426 18.2979L82 16.499Z" fill="#4D525E"/><path d="M51.2727 18.8649C51.2727 19.5907 50.6777 20.1847 49.9504 20.1847C49.2231 20.1847 48.6281 19.5907 48.6281 18.8649H51.2727ZM55.0678 19.9009L53.3686 18.205H44L45.9835 16.2253V12.2659C45.9835 11.8369 46.0496 11.4212 46.1818 11.0319L44.3107 9.16436L45.2496 8.2339L46.8364 9.81766L56 18.9638L55.0678 19.9009ZM49.2893 8.35928V7.64659C49.2893 7.28365 49.5868 6.98669 49.9504 6.98669C50.314 6.98669 50.6116 7.28365 50.6116 7.64659V8.35928C52.4893 8.67603 53.9174 10.306 53.9174 12.2659V15.0177L47.8149 8.92679C48.2579 8.63644 48.7537 8.45167 49.2893 8.35928Z" fill="#4D525E"/><path d="M31.9321 59.8941C37.9194 59.5716 43.3417 55.5993 46.4927 50.589C49.462 45.8677 50.4453 39.7976 50.5709 34.317C50.6167 32.3159 49.6184 26.3711 49.9667 28.3424" stroke="#0d4d96" stroke-width="3" stroke-linecap="round" stroke-linejoin="round"/><path d="M43.8539 38.7375C45.2282 36.3556 46.9841 34.2765 48.2735 31.8224C48.8965 30.6367 49.3684 29.4704 49.7327 28.1873C49.7595 28.0928 49.9482 26.523 50.1223 26.8801C51.6449 30.0036 53.7457 33.1578 56.6855 35.2124" stroke="#0d4d96" stroke-width="3" stroke-linecap="round" stroke-linejoin="round"/><defs><linearGradient id="paint0_linear" x1="100" y1="13.9733" x2="1.13845e-07" y2="13.9733" gradientUnits="userSpaceOnUse"><stop offset="0.649249" stop-color="#D0D2D8"/><stop offset="1" stop-color="#D0D2D8" stop-opacity="0"/></linearGradient></defs></svg>